#!OML:ASF I:\Actors\actors\Patient Classification 1\Patient 1\Session 1\Subject1.ASF
:FULLY-SPECIFIED
:DEGREES
244
root -0.219244 17.5686 8.218 7.63546 -12.5323 -6.76484
lowerback 2.24261 -0.217904 3.25755
upperback -10.4691 0.0954465 1.51961
thorax -12.5554 -0.203624 -0.173088
lowerneck -13.8709 0.217165 2.29328
upperneck 17.822 -1.71201 7.23917
head 7.86904 0.0369791 1.83035
rclavicle -3.57812e-015 1.03368e-014
rhumerus 34.3668 28.9133 -85.6075
rradius 77.4491
rwrist 19.9186
rhand -15.4899 -49.7684
rfingers 7.12502
rthumb 10.6923 -79.4763
lclavicle -3.57812e-015 1.03368e-014
lhumerus 52.121 -14.9478 68.803
lradius 42.9995
lwrist -10.7028
lhand -52.6188 -68.1548
lfingers 7.12502
lthumb -25.1005 -39.7846
rfemur -5.21698 22.8184 23.3022
rtibia 9.57746
rfoot -12.253 -14.3218
rtoes -6.70983
lfemur 4.51333 -26.6911 -15.1719
ltibia -0.667518
lfoot -15.9774 39.4961
ltoes 2.54502
245
root -0.217625 17.5702 8.21356 7.71579 -12.3752 -6.86843
lowerback 1.81633 -0.148178 3.20696
upperback -10.0845 0.16119 1.55855
thorax -11.8384 -0.152973 -0.12093
lowerneck -14.446 0.156455 2.29972
upperneck 17.7461 -1.7918 7.10604
head 7.94761 -0.00378782 1.77849
rclavicle 1.68967e-014 -2.62396e-014
rhumerus 37.2143 28.2253 -85.6716
rradius 73.8211
rwrist 20.7124
rhand -16.261 -49.7328
rfingers 7.12502
rthumb 9.94837 -79.4777
lclavicle 1.68967e-014 -2.62396e-014
lhumerus 52.7798 -15.1354 68.827
lradius 42.9916
lwrist -10.5491
lhand -52.2239 -69.8082
lfingers 7.12502
lthumb -24.7221 -41.3856
rfemur -5.24578 22.7562 23.3719
rtibia 9.46987
rfoot -12.248 -14.3862
rtoes -6.75073
lfemur 4.39067 -26.8234 -14.9806
ltibia -0.698003
lfoot -15.9194 39.4991
ltoes 2.52449
246
root -0.217019 17.5727 8.20999 7.77412 -12.2 -6.96647
lowerback 1.86868 -0.0769249 3.32264
upperback -10.0487 0.261168 1.46767
thorax -11.8264 -0.120065 -0.296054
lowerneck -14.5935 0.0483319 2.18593
upperneck 17.7199 -1.95612 7.28303
head 7.97324 -0.0698448 1.83856
rclavicle -1.19271e-014 -1.27222e-014
rhumerus 38.9987 27.5329 -86.3189
rradius 70.3457
rwrist 21.9604
rhand -17.2484 -49.5795
rfingers 7.12502
rthumb 8.99569 -79.3677
lclavicle -1.19271e-014 -1.27222e-014
lhumerus 52.9545 -15.6231 68.8827
lradius 43.2932
lwrist -5.69383
lhand -48.1674 -73.3387
lfingers 7.12502
lthumb -20.8293 -44.4368
rfemur -5.2126 22.7391 23.4644
rtibia 9.31625
rfoot -12.2338 -14.5052
rtoes -6.83196
lfemur 4.27793 -26.9321 -14.8049
ltibia -0.695736
lfoot -15.7822 39.4707
ltoes 2.34421
247
root -0.217437 17.5753 8.20666 7.79753 -12.0017 -7.04465
lowerback 1.96752 -0.0530927 3.38771
upperback -10.0329 0.298382 1.40722
thorax -11.8679 -0.111772 -0.402131
lowerneck -14.6276 -0.0298028 2.11112
upperneck 17.6513 -2.08059 7.46672
head 7.96363 -0.117455 1.89765
rclavicle -7.15625e-015 4.37326e-015
rhumerus 40.543 27.0275 -86.8662
rradius 67.2186
rwrist 22.9452
rhand -18.6583 -49.4341
rfingers 7.12502
rthumb 7.63498 -79.2763
lclavicle -7.15625e-015 4.37326e-015
lhumerus 52.9285 -15.9038 69.2296
lradius 43.6266
lwrist -1.8443
lhand -44.9854 -74.619
lfingers 7.12502
lthumb -17.7696 -45.4109
rfemur -5.12108 22.6815 23.5584
rtibia 9.13133
rfoot -12.1772 -14.5905
rtoes -6.93152
lfemur 4.1761 -27.0055 -14.6563
ltibia -0.662556
lfoot -15.6125 39.4192
ltoes 2.03729
248
root -0.219507 17.5781 8.20286 7.83661 -11.7927 -7.16402
lowerback 2.04889 0.0106698 3.53495
upperback -9.97825 0.394633 1.34233
thorax -11.8515 -0.0817604 -0.566726
lowerneck -14.8277 -0.161956 1.84289
upperneck 17.6302 -2.26963 7.76718
head 8.00495 -0.191941 2.02195
rclavicle -1.0635e-014 -2.38542e-014
rhumerus 41.9783 26.4865 -87.2123
rradius 64.5992
rwrist 23.8403
rhand -20.3885 -49.4774
rfingers 7.12502
rthumb 5.9647 -79.3735
lclavicle -1.0635e-014 -2.38542e-014
lhumerus 52.8899 -16.0904 69.9506
lradius 44.0444
lwrist 0.875042
lhand -42.7156 -74.5571
lfingers 7.12502
lthumb -15.5845 -45.1649
rfemur -5.05921 22.5598 23.694
rtibia 8.98481
rfoot -12.1337 -14.6328
rtoes -6.91131
lfemur 4.03334 -27.0523 -14.4283
ltibia -0.594639
lfoot -15.5009 39.3126
ltoes 1.77348
249
root -0.223269 17.582 8.19988 7.91794 -11.6232 -7.29409
lowerback 2.49518 0.12553 3.81387
upperback -10.2428 0.588607 1.16706
thorax -12.4289 -0.0370552 -0.933971
lowerneck -14.7594 -0.346236 1.51865
upperneck 17.8365 -2.55982 8.23496
head 8.08244 -0.299964 2.20231
rclavicle -2.5345e-014 2.06736e-014
rhumerus 42.528 25.7775 -87.9597
rradius 62.5083
rwrist 24.9848
rhand -22.1118 -49.65
rfingers 7.12502
rthumb 4.3008 -79.5864
lclavicle -2.5345e-014 2.06736e-014
lhumerus 52.347 -16.7214 70.6459
lradius 44.7021
lwrist -0.0558179
lhand -42.2905 -73.3622
lfingers 7.12502
lthumb -15.175 -43.9386
rfemur -5.06631 22.4805 23.8319
rtibia 8.89088
rfoot -12.1401 -14.698
rtoes -6.92051
lfemur 3.85993 -27.0888 -14.1653
ltibia -0.533402
lfoot -15.4312 39.186
ltoes 1.5873
250
root -0.228836 17.5857 8.19848 8.02538 -11.5159 -7.40064
lowerback 1.98393 0.0954681 3.70149
upperback -9.92286 0.508568 1.22618
thorax -11.7423 -0.046541 -0.799622
lowerneck -14.9639 -0.297578 1.49088
upperneck 17.5897 -2.49334 8.33387
head 8.03643 -0.264045 2.24488
rclavicle -3.08116e-015 7.55382e-015
rhumerus 44.0157 25.581 -88.1722
rradius 60.8883
rwrist 25.8682
rhand -23.7712 -49.8047
rfingers 7.12502
rthumb 2.69831 -79.7674
lclavicle -3.08116e-015 7.55382e-015
lhumerus 52.4498 -16.4755 71.1844
lradius 45.0246
lwrist -2.0576
lhand -42.5001 -73.9329
lfingers 7.12502
lthumb -15.3769 -44.5247
rfemur -5.10847 22.4672 23.9418
rtibia 8.81447
rfoot -12.1135 -14.7817
rtoes -7.09466
lfemur 3.71727 -27.1328 -13.9413
ltibia -0.528026
lfoot -15.4197 39.1341
ltoes 1.47586
251
root -0.235838 17.588 8.19686 8.10095 -11.4162 -7.46635
lowerback 2.02122 0.108308 3.68952
upperback -9.95254 0.518261 1.12474
thorax -11.7982 -0.0478096 -0.903563
lowerneck -14.9274 -0.307902 1.62869
upperneck 17.5401 -2.55417 8.4285
head 8.01722 -0.276868 2.24596
rclavicle 1.33186e-014 -1.19271e-015
rhumerus 44.6145 25.2346 -88.7435
rradius 59.6505
rwrist 26.4934
rhand -25.0726 -49.6832
rfingers 7.12502
rthumb 1.44145 -79.6581
lclavicle 1.33186e-014 -1.19271e-015
lhumerus 52.0375 -16.3578 72.1046
lradius 45.3369
lwrist -2.61756
lhand -44.1995 -71.3868
lfingers 7.12502
lthumb -17.0132 -42.1119
rfemur -5.13651 22.4234 24.0113
rtibia 8.75627
rfoot -12.103 -14.8074
rtoes -6.96004
lfemur 3.64813 -27.2518 -13.7972
ltibia -0.572198
lfoot -15.4404 39.1725
ltoes 1.50746
252
root -0.242303 17.589 8.19306 8.13865 -11.2782 -7.47679
lowerback 2.14043 0.105933 3.62443
upperback -9.95651 0.50591 1.01687
thorax -11.8753 -0.0550675 -0.982728
lowerneck -14.8887 -0.292494 1.74574
upperneck 17.3936 -2.56701 8.53268
head 7.96371 -0.270969 2.25765
rclavicle 1.97791e-014 -5.96354e-015
rhumerus 45.1079 24.9382 -89.263
rradius 58.6956
rwrist 26.6994
rhand -24.7556 -49.1892
rfingers 7.12502
rthumb 1.74761 -79.1618
lclavicle 1.97791e-014 -5.96354e-015
lhumerus 51.7398 -16.3361 72.7326
lradius 45.8529
lwrist -2.70543
lhand -45.5715 -68.6026
lfingers 7.12502
lthumb -18.3335 -39.4465
rfemur -5.16953 22.3439 24.0193
rtibia 8.73345
rfoot -12.1505 -14.8146
rtoes -6.45173
lfemur 3.6069 -27.4795 -13.7362
ltibia -0.63305
lfoot -15.4069 39.268
ltoes 1.5537
253
root -0.249139 17.5886 8.18968 8.18719 -11.1305 -7.53203
lowerback 2.20805 0.0989211 3.58369
upperback -9.92088 0.494144 0.996876
thorax -11.8757 -0.0573939 -0.980722
lowerneck -14.8794 -0.270108 1.74669
upperneck 17.2237 -2.51845 8.52585
head 7.90342 -0.254711 2.25811
rclavicle 8.05078e-015 1.27222e-014
rhumerus 45.5925 24.8042 -89.4691
rradius 58.0244
rwrist 26.2837
rhand -23.2868 -48.3637
rfingers 7.12502
rthumb 3.16617 -78.3199
lclavicle 8.05078e-015 1.27222e-014
lhumerus 51.3925 -16.2905 73.2828
lradius 46.6449
lwrist -2.88693
lhand -47.5674 -63.827
lfingers 7.12502
lthumb -20.2527 -34.8629
rfemur -5.19452 22.3262 24.0979
rtibia 8.70667
rfoot -12.156 -14.9197
rtoes -6.21024
lfemur 3.5574 -27.6715 -13.6081
ltibia -0.700934
lfoot -15.3114 39.3304
ltoes 1.53342
254
root -0.257731 17.5887 8.18728 8.24161 -10.9883 -7.61988
lowerback 2.24936 0.144644 3.58939
upperback -9.8638 0.558979 1.00486
thorax -11.8319 -0.0243199 -0.983932
lowerneck -14.9348 -0.316915 1.50104
upperneck 17.0792 -2.54171 8.66304
head 7.86993 -0.27223 2.34017
rclavicle -1.97791e-014 7.95139e-016
rhumerus 46.0694 24.6836 -89.2237
rradius 57.6772
rwrist 25.2189
rhand -22.4195 -47.4599
rfingers 7.12502
rthumb 4.00364 -77.4021
lclavicle -1.97791e-014 7.95139e-016
lhumerus 51.001 -16.3771 73.77
lradius 47.8106
lwrist -2.61537
lhand -47.688 -64.4158
lfingers 7.12502
lthumb -20.3686 -35.464
rfemur -5.19616 22.2835 24.227
rtibia 8.63773
rfoot -12.1246 -15.0199
rtoes -6.23779
lfemur 3.48937 -27.7649 -13.4161
ltibia -0.746754
lfoot -15.2469 39.2958
ltoes 1.68734
255
root -0.266632 17.5896 8.18446 8.27633 -10.8529 -7.64753
lowerback 2.33249 0.187647 3.52712
upperback -9.82508 0.612344 0.966725
thorax -11.8349 0.0059145 -0.997763
lowerneck -14.9569 -0.356537 1.37823
upperneck 16.9185 -2.58529 8.8214
head 7.82616 -0.290678 2.40623
rclavicle 1.78906e-015 -2.54444e-014
rhumerus 46.4356 24.5323 -88.9283
rradius 57.581
rwrist 23.9831
rhand -22.3451 -46.8324
rfingers 7.12502
rthumb 4.07557 -76.7732
lclavicle 1.78906e-015 -2.54444e-014
lhumerus 50.6614 -16.5399 73.9822
lradius 49.0576
lwrist -1.84392
lhand -47.7671 -64.7906
lfingers 7.12502
lthumb -20.4446 -35.8469
rfemur -5.20311 22.1504 24.277
rtibia 8.55828
rfoot -12.1132 -15.0333
rtoes -6.2667
lfemur 3.41179 -27.8759 -13.3052
ltibia -0.746119
lfoot -15.2711 39.279
ltoes 1.89726
256
root -0.275107 17.5901 8.18332 8.30214 -10.7279 -7.67964
lowerback 2.43168 0.304056 3.50365
upperback -9.78203 0.757575 0.806818
thorax -11.837 0.0698784 -1.17663
lowerneck -15.0755 -0.463603 1.6711
upperneck 16.7723 -2.77674 8.73502
head 7.804 -0.373247 2.3059
rclavicle 1.49089e-014 -1.82882e-014
rhumerus 46.6594 24.0932 -88.652
rradius 57.6835
rwrist 23.2857
rhand -22.5758 -46.6295
rfingers 7.12502
rthumb 3.8527 -76.5744
lclavicle 1.49089e-014 -1.82882e-014
lhumerus 50.5851 -16.9719 73.9222
lradius 50.0726
lwrist -1.14195
lhand -48.0363 -64.846
lfingers 7.12502
lthumb -20.7033 -35.9303
rfemur -5.19981 22.0254 24.3404
rtibia 8.50393
rfoot -12.1005 -15.0427
rtoes -6.43813
lfemur 3.37342 -27.9726 -13.2121
ltibia -0.770993
lfoot -15.2162 39.2961
ltoes 1.73645
257
root -0.284318 17.5899 8.18424 8.34529 -10.6019 -7.71453
lowerback 2.50998 0.396371 3.51212
upperback -9.74724 0.871898 0.648202
thorax -11.8367 0.115799 -1.36807
lowerneck -15.2258 -0.565182 1.96334
upperneck 16.6982 -2.96936 8.64847
head 7.81061 -0.453249 2.20668
rclavicle 1.03368e-014 -3.49861e-014
rhumerus 46.7284 23.7441 -88.3883
rradius 58.0393
rwrist 23.2168
rhand -22.6407 -46.6692
rfingers 7.12502
rthumb 3.79011 -76.6153
lclavicle 1.03368e-014 -3.49861e-014
lhumerus 50.5806 -17.3441 73.7029
lradius 50.9132
lwrist -0.47495
lhand -48.258 -64.5072
lfingers 7.12502
lthumb -20.9163 -35.6149
rfemur -5.20209 21.9322 24.4092
rtibia 8.45959
rfoot -12.0765 -15.0716
rtoes -6.64958
lfemur 3.32324 -28.043 -13.1044
ltibia -0.803122
lfoot -15.0876 39.2879
ltoes 1.46706
